<svg xmlns="http://www.w3.org/2000/svg" xmlns:xlink="http://www.w3.org/1999/xlink" viewBox="0 0 118.73 120"><defs><style>.cls-1{fill:none;}.cls-2{clip-path:url(#clip-path);}.cls-3{fill:#231f20;}.cls-4{fill:#fff;}</style><clipPath id="clip-path" transform="translate(0 0)"><rect class="cls-1" width="118.73" height="120"/></clipPath></defs><title>allealle_logo</title><g id="Layer_2" data-name="Layer 2"><g id="Layer_1-2" data-name="Layer 1"><g class="cls-2"><g class="cls-2"><path class="cls-3" d="M103.5,99.68A36.32,36.32,0,0,0,90.81,95.9c-3.73-.45-7.47-.9-11.13-1.7-2.53-.56-4.54-.87-5,2.68-.45-1.33.41-2.62-1.35-3.61-.91-.51-.55-3.13-1-4.75A35.58,35.58,0,0,0,70.63,83c-.4-.93-1.33-1.64-2.37-2.85H70.8l-7.46-5.36h4.51c-3.26-2.87-6.34-5.13-10.25-6.26l3.48-.24c-1.9-3.3-5.23-3.26-8.22-4.51L55,63c-1.54-2.93-4.47-3.91-7-5.31,1.79-3.21.73-4.95-4.08-6.92a1.5,1.5,0,0,1-.11-.49c.1-1.35,1.54-2.73-.29-4S38,44.4,36.35,45.52A39,39,0,0,1,20.7,51.75C13.13,53,11.51,51.57,13,44.17c.47-2.3,1.33-4.53,2-6.79,1.36-4.45.52-6.78-2.92-9.69A18.06,18.06,0,0,1,8.36,23c-1.54-2.64-3.07-5.07-6.47-5.46A7.37,7.37,0,0,1,0,16.72c.72-2.83,2.64-4.46,5-5.82A9.93,9.93,0,0,0,7.72,8.47c2.64-3.37,5.9-6,10.07-6.87A90.79,90.79,0,0,1,30.85,0c4.82-.27,8.25,2.4,10.4,6.45,2.86,5.36,5.58,10.79,6.77,16.87a10.91,10.91,0,0,0,6.66,8.13c8.55,3.72,15.61,9.4,22.11,16.78L73,46.38l-.27.45,8.16,5.24-.33.61-4.13-1.87c1,1.21,1.42,1.81,1.88,2.41l.07-.06L73.46,50.8l-.43.56c5.24,2.63,7.15,9.06,12.82,11.2.16-.19.33-.37.49-.55L82,58l2-.76,0,.09c4,5.23,7.54,10.76,8.37,17.49a7.63,7.63,0,0,0,4.27,6.09c6.48,3.46,13.08,6.69,19.61,10a23.39,23.39,0,0,1,2.53,1.71c0,.34-.11.68-.17,1l-8.63,1.08,6.21,2.42c0,.22,0,.44-.07.66l-6.93,1,.88,1.17-6.56-.4s0,0,0,0M78.71,57.85,68.13,48.7c1.84,5.55,6,7.72,10.58,9.15M10.87,13.35c-4-2.33-7.46-1.9-8.37,1.31l8.37-1.31m79,64.85c-4.4-1.71-8.65-.43-12.86,1.45L89.91,78.2" transform="translate(0 0)"/><path class="cls-3" d="M53.26,109.12a12.94,12.94,0,0,0-2.14.66C50,110.33,48.88,111,48,111.5a15.2,15.2,0,0,1-2.09,1.58,2.84,2.84,0,0,1-2,.07c-2.75.68-4.77,2.94-7.89,2.9-.93,0-1.83,1.15-2.83,1.47a33.63,33.63,0,0,1-4.14.8c0-.17,0-.35,0-.52A13.21,13.21,0,0,0,32,116a24,24,0,0,0,2.41-4l-2.82,1c-.1-.2-.19-.39-.29-.58.67-.31,1.35-.88,2-.87,4.56,0,5.12-.21,8.4-4.56-5.23.56-9.9,3.1-15,4.89.09-.88.15-1.5.22-2.13a7,7,0,0,0,2.08-.35c1.52-.76,3-1.68,4.42-2.54,1.66,1.19,4.93-.29,6.12-3.1L33.42,107l-.21-.46,10.54-6.83.28.26-3.53,3.3L55,98.39c1.6.64,3.67,1.36,5.63,2.31,1.07.52,1.88,1.57,2.94,2.1A15.41,15.41,0,0,0,68,104.38a30,30,0,0,0,4.91.06c-1-1.69.72-2.67,2-3,9.16-2,18.42-3.06,27.81-2a3.86,3.86,0,0,1,.73.23s0,0,0,0a9.82,9.82,0,0,1-6.2,1,25.74,25.74,0,0,0-6.48.3c-2,.21-3.94.62-6.11,1,0,0,.07.49.06.43l-6.94,3.16v-2c-.48.15-1.59.17-1.94.69-1.13,1.72-2.72,1.4-4.34,1.53a4.83,4.83,0,0,0-2.68,1.56c-4-1-8,3.21-11.22.78l-4.4,1h0m-6.94-2.69-2.48-.77c-.62,1-1.41,2.33-2.62,4.31l5.12-3.55c-.67.84-2,1.79-1.9,2.51.3,1.95-.16,1.93-1.72,1.37-.45-.15-1.26.65-1.85,1.08a1.57,1.57,0,0,0,.3.81,7,7,0,0,0,1.88-.37,5.44,5.44,0,0,0,1.53-.88c2.11-1.72,4-4,6.34-5.1s5.39-1.06,8.09-1.66c.46-.11.76-1,1.13-1.48a41.85,41.85,0,0,0-9.24.66c-1.89.34-3.86.86-4.58,3.07" transform="translate(0 0)"/><path class="cls-4" d="M33.49,106.88c-1.46.86-2.9,1.78-4.42,2.54a7,7,0,0,1-2.08.35c0-.24-.17-.53-.08-.72.56-1.18,4.86-2.89,6.3-2.54l.21.45.07-.08" transform="translate(0 0)"/><path class="cls-3" d="M29,117.8l0,.52L27.77,120v-2.54l-2.06,1.89-.42-.43,3.58-3.54.47.28c-.11.71-.21,1.43-.31,2.14" transform="translate(0 0)"/><path class="cls-3" d="M78.3,53.21c2.52.52,5.09.95,5.65,4.14l0-.09-5.62-4.1Z" transform="translate(0 0)"/><polyline class="cls-3" points="53.26 109.12 53.21 109.11 53.26 109.12"/><path class="cls-4" d="M78.37,53.16,84,57.26,82,58l4.38,4-.49.55C80.18,60.42,78.27,54,73,51.36l.43-.56,4.91,2.36" transform="translate(0 0)"/><path class="cls-4" d="M78.71,57.85c-4.63-1.43-8.74-3.6-10.58-9.15l10.58,9.15" transform="translate(0 0)"/><path class="cls-4" d="M10.87,13.36,2.5,14.66c.91-3.21,4.4-3.64,8.37-1.3" transform="translate(0 0)"/><path class="cls-4" d="M89.91,78.2,77.05,79.65c4.21-1.88,8.46-3.16,12.86-1.45" transform="translate(0 0)"/><path class="cls-4" d="M46.32,106.43c.72-2.21,2.69-2.73,4.58-3.07a41.85,41.85,0,0,1,9.24-.66c-.37.51-.67,1.37-1.13,1.48-2.7.6-5.66.53-8.09,1.66s-4.23,3.38-6.34,5.1a5.44,5.44,0,0,1-1.53.88,7,7,0,0,1-1.88.37,1.57,1.57,0,0,1-.3-.81c.59-.43,1.4-1.23,1.85-1.08,1.56.56,2,.58,1.72-1.37-.11-.72,1.23-1.67,1.9-2.51h0" transform="translate(0 0)"/><path class="cls-4" d="M33.49,106.88l-.07.08,6.19-3.18c-1.19,2.81-4.47,4.29-6.12,3.1" transform="translate(0 0)"/><path class="cls-4" d="M46.32,106.43h0L41.22,110c1.21-2,2-3.29,2.62-4.31l2.48.77" transform="translate(0 0)"/></g></g></g></g></svg>